PathFileType	4	(X/Y/Z)	Run_300 01
DataRate	CameraRate	NumFrames	NumMarkers	Units	OrigDataRate	OrigDataStartFrame	OrigNumFrames
100	100	7	42	mm	100	139	128
Frame#	Time	LASI			RASI			LPSI			RPSI			RTH1			RTH2			RTH3			LTH1			LTH2			LTH3			RTB1			RTB2			RTB3			LTB1			LTB2			LTB3			RCAL			RTOE			RMT5			LCAL			LTOE			LACR			RACR			CLAV			C7			RUA1			RUA2			RUA3			RLEL			RMEL			LUA1			LUA2			LUA3			LLEL			LMEL			RFAsuperior			RFAradius			RFAulna			LFAsuperior			LFAradius			LFAulna			LMT5		
		X1	Y1	Z1	X2	Y2	Z2	X3	Y3	Z3	X4	Y4	Z4	X5	Y5	Z5	X6	Y6	Z6	X7	Y7	Z7	X8	Y8	Z8	X9	Y9	Z9	X10	Y10	Z10	X11	Y11	Z11	X12	Y12	Z12	X13	Y13	Z13	X14	Y14	Z14	X15	Y15	Z15	X16	Y16	Z16	X17	Y17	Z17	X18	Y18	Z18	X19	Y19	Z19	X20	Y20	Z20	X21	Y21	Z21	X22	Y22	Z22	X23	Y23	Z23	X24	Y24	Z24	X25	Y25	Z25	X26	Y26	Z26	X27	Y27	Z27	X28	Y28	Z28	X29	Y29	Z29	X30	Y30	Z30	X31	Y31	Z31	X32	Y32	Z32	X33	Y33	Z33	X34	Y34	Z34	X35	Y35	Z35	X36	Y36	Z36	X37	Y37	Z37	X38	Y38	Z38	X39	Y39	Z39	X40	Y40	Z40	X41	Y41	Z41	X42	Y42	Z42	

139	  1.390000	736.847539	1072.280492	-444.213954	738.064675	1042.954326	-199.710318	558.899032	1144.481099	-360.859317	563.700493	1138.383760	-275.830734	643.971576	915.124639	-146.362549	658.675335	770.329389	-169.862474	552.055618	691.484497	-184.047935	693.195948	956.957918	-511.618400	799.030655	870.061397	-485.415059	768.106377	714.887799	-474.156484	481.293861	447.952086	-243.041611	378.102764	404.767163	-196.338012	334.515979	310.735294	-255.302937	861.015165	500.546407	-409.626211	804.884673	420.461623	-473.620023	844.226559	295.083585	-396.098601	162.766047	321.982722	-284.544733	274.818968	117.680661	-286.030489	220.490228	116.407427	-210.985548	719.876867	148.666193	-375.517027	949.785078	140.218824	-367.400369	691.941250	1599.034628	-474.095440	716.439834	1568.873227	-142.464811	782.283452	1540.644431	-297.395451	644.705839	1613.637819	-318.599161	663.573130	1463.351238	-59.318561	584.703456	1393.675886	-77.093068	626.847804	1353.001823	-25.540058	612.510924	1258.062462	  0.614519	571.584253	1239.912417	-70.054547	601.072932	1544.667466	-565.404441	514.463034	1496.956690	-543.079350	525.860501	1462.860752	-615.692781	479.973808	1390.974515	-657.537098	428.895791	1381.521170	-597.727107	674.485189	1206.949936	-14.121103	846.793100	1168.971539	-121.658390	817.946780	1109.584031	-92.707153	538.099506	1280.285927	-636.498681	639.022543	1197.949196	-544.207994	587.015977	1159.813692	-564.317404	924.095641	 93.299493	-441.703056	
140	  1.400000	737.167094	1070.852585	-445.951481	739.189089	1043.774858	-200.351698	559.208352	1143.395572	-361.288388	564.245086	1139.129820	-275.819106	647.426723	914.700536	-146.747285	664.392673	769.334880	-171.439882	559.226622	689.211405	-183.767685	691.638757	953.929487	-512.133179	794.753227	863.558210	-486.689827	760.259413	709.458071	-473.576589	482.148982	448.460949	-243.005546	377.096862	410.770325	-195.862521	327.331676	320.540174	-255.514539	858.102760	497.096352	-408.446463	805.498397	414.183673	-471.399445	853.536198	291.332764	-394.350713	155.227433	340.897857	-280.645459	258.521186	132.138183	-289.053615	205.215002	131.660760	-211.969371	737.247662	139.561032	-371.952795	966.945007	140.791571	-363.483078	691.183752	1597.452354	-475.836035	716.255336	1568.335225	-144.213775	781.933173	1540.101958	-299.099956	644.367205	1612.837511	-320.246676	662.853649	1463.007450	-61.161612	583.648341	1394.478069	-78.919102	624.870541	1353.549802	-27.000322	609.859023	1258.813952	 -0.722274	568.940645	1240.871618	-71.524218	600.399239	1542.711481	-567.171156	513.806057	1494.825819	-544.119370	525.048830	1460.834230	-616.839490	479.495650	1388.410900	-658.395682	428.848170	1378.678013	-598.636379	671.985866	1207.367248	-15.241893	843.341823	1166.468276	-122.468921	813.714115	1107.458254	-93.385895	538.964058	1278.596360	-637.333240	640.778193	1197.419836	-544.814149	589.120216	1158.664068	-564.568642	943.512195	 91.185440	-436.831894	
141	  1.410000	737.069093	1067.753844	-447.584936	740.293787	1043.329796	-201.444335	559.146965	1140.634707	-361.616501	564.537761	1138.004410	-276.025630	651.895452	912.653173	-147.367103	670.920594	767.181700	-172.922584	567.578326	685.338595	-183.714529	690.066479	950.085704	-512.588883	790.167571	856.411018	-487.847966	752.704767	703.506390	-472.899317	484.828175	447.972897	-243.088189	378.075024	416.391304	-195.521562	322.250873	330.249957	-255.399508	854.851137	493.439191	-407.134032	804.307149	408.444734	-468.724811	859.161060	287.949905	-392.273454	151.531264	360.489698	-279.011901	244.098093	146.595106	-289.004233	190.502542	148.740508	-211.150251	748.752754	133.227233	-366.279963	978.192944	139.446952	-362.423351	690.721486	1594.716977	-477.802543	715.905391	1566.680726	-145.874886	781.494373	1538.231484	-300.705543	643.893143	1611.064017	-322.080094	661.885517	1461.741514	-62.674419	582.093543	1394.180255	-80.670082	622.663586	1352.922053	-28.589384	606.633708	1258.435797	 -2.116668	565.800252	1240.791143	-73.097219	600.282353	1539.154886	-569.266028	513.755761	1490.811892	-545.862279	525.314604	1456.797201	-618.569655	480.611850	1383.669965	-659.909763	430.067126	1373.533205	-600.440199	668.364096	1206.102169	-16.269855	839.227561	1161.894570	-122.602153	808.550482	1103.380171	-93.620490	541.433930	1274.805151	-638.432716	643.850811	1195.112475	-545.151987	592.783954	1155.639230	-564.883248	954.419523	 89.094692	-435.130187	
142	  1.420000	736.681246	1063.238215	-449.270750	741.396505	1041.666390	-202.971505	558.796171	1136.461178	-361.992302	564.343587	1134.769058	-276.430281	657.131040	909.035146	-147.984869	678.039737	763.991904	-173.692231	576.913768	680.054955	-183.598466	688.506505	945.375786	-513.106609	785.558751	848.949492	-488.634964	746.279972	697.453781	-472.401929	489.317270	446.605060	-242.704217	380.928400	421.859121	-195.094857	319.517670	339.785492	-254.667604	851.132602	489.305709	-405.555193	801.419755	402.818155	-465.547456	861.002888	284.194760	-389.910643	151.231179	380.119234	-278.969320	232.252789	161.261216	-286.378651	177.769522	167.239572	-208.575702	754.344917	128.136228	-359.084605	983.680361	135.818323	-363.693291	690.477433	1590.845340	-479.990281	715.282347	1564.099027	-147.455203	780.919157	1535.092389	-302.247683	643.361691	1608.272248	-324.095256	660.526267	1459.555334	-64.015219	579.963617	1392.778962	-82.414221	620.208654	1351.155215	-30.314543	602.872324	1256.892736	 -3.670163	562.211103	1239.681432	-74.830074	600.642284	1534.002882	-571.743700	514.308022	1484.951565	-548.370146	526.626634	1450.693505	-620.911142	483.242039	1376.850375	-662.221885	432.413250	1366.176311	-603.081856	663.602462	1203.178187	-17.223609	834.467639	1155.336533	-122.057036	802.442532	1097.479098	-93.376390	545.410805	1268.973921	-639.761723	648.241520	1191.207892	-545.252663	597.978542	1150.890764	-565.207439	957.653032	 85.545869	-435.795398	
143	  1.430000	735.985902	1057.329543	-451.012593	742.365467	1038.924582	-204.481591	558.115085	1130.900207	-362.418599	563.442996	1129.542995	-276.825224	662.352022	904.256797	-148.278704	685.625339	759.905869	-173.363743	587.128651	673.596793	-183.090290	686.969124	939.907211	-513.789485	781.470006	841.563186	-489.287919	741.223328	691.433909	-471.974981	495.590627	444.570611	-241.588276	385.648712	427.250985	-194.409937	319.377274	349.037538	-253.487248	846.773323	484.257331	-403.973338	796.903520	396.829539	-462.303933	859.505118	279.412300	-387.755627	153.704364	399.100530	-279.079557	223.503382	176.184477	-282.791896	168.781580	186.219442	-204.991798	754.733677	123.469909	-351.811362	983.882925	129.484617	-365.572708	690.295443	1585.806957	-482.297057	714.280067	1560.584568	-149.031856	780.200650	1530.774742	-303.724207	642.757444	1604.431606	-326.286460	658.637232	1456.299192	-65.453014	577.359291	1390.305324	-84.214831	617.352536	1348.240813	-32.129627	598.609749	1254.178385	 -5.442344	558.214221	1237.527890	-76.748557	601.412428	1527.259813	-574.623062	515.414103	1477.260325	-551.660228	528.944738	1442.516096	-623.871633	487.197033	1368.043469	-665.319863	435.767512	1356.755709	-606.505378	658.063547	1198.925830	-18.064390	829.099599	1146.880672	-120.891637	795.370759	1089.866633	-92.626648	550.768075	1261.258874	-641.296283	653.903169	1185.951360	-545.120346	604.653994	1144.675503	-565.497292	954.857869	 78.924608	-436.659647	
144	  1.440000	734.962233	1050.124761	-452.585443	743.046801	1035.176727	-205.632006	557.094611	1124.043470	-362.675339	562.078283	1122.868021	-276.958610	666.782231	898.819506	-148.091427	693.594731	755.005530	-172.055969	598.071776	666.190750	-181.989362	685.345092	933.778864	-514.500240	778.428740	834.561936	-490.240922	737.077866	685.197300	-471.232315	503.608859	442.063063	-239.803662	392.332833	432.390890	-193.315334	321.959637	357.802688	-252.094627	841.826923	477.901815	-402.838815	791.058447	390.090384	-459.724835	855.316044	273.161549	-386.227153	158.809610	416.977826	-278.322113	218.139796	191.016626	-279.604254	164.386241	204.585939	-201.360575	750.568790	119.397375	-345.922283	979.286144	119.884540	-365.901196	690.036326	1579.590430	-484.616413	712.804574	1555.978441	-150.690913	779.324593	1525.384185	-305.109216	641.988262	1599.559682	-328.673877	656.119092	1452.007706	-67.077601	574.400021	1386.781360	-86.150457	613.969066	1344.186938	-33.977110	593.852332	1250.370848	 -7.361936	553.820926	1234.319273	-78.831422	602.582695	1518.962134	-577.845489	517.027032	1467.823604	-555.718410	532.285999	1432.359304	-627.422724	492.289814	1357.365224	-669.036691	440.134633	1345.415738	-610.644449	652.015722	1193.637270	-18.755426	823.123029	1136.637274	-119.144882	787.331872	1080.657671	-91.376289	557.389226	1251.885729	-643.004222	660.759831	1179.627735	-544.708910	612.758418	1137.301177	-565.721565	947.244484	 69.058749	-435.836124	
145	  1.450000	733.749619	1041.904634	-453.805430	743.414612	1030.404390	-206.419223	555.893737	1116.165040	-362.585742	560.817566	1115.191784	-276.778955	670.276374	892.916887	-147.519437	701.847178	749.328973	-170.170469	609.534026	658.016098	-180.301241	683.543518	926.903437	-514.841137	776.535946	827.965404	-491.426134	733.434373	678.351171	-470.163892	513.296696	439.120351	-237.494503	401.090747	436.886966	-191.708219	327.188682	365.812465	-250.519365	836.529180	469.995953	-402.245806	784.350218	382.343140	-458.177937	848.396957	265.193043	-384.922564	166.656564	433.452955	-276.585044	216.331637	205.219774	-277.309571	164.223122	221.497171	-198.339984	741.277884	116.024743	-341.766417	969.624076	107.240730	-363.375670	689.654754	1572.250987	-486.898517	710.790346	1550.204036	-152.434090	778.251736	1519.008793	-306.411721	641.019861	1593.681377	-331.246561	652.970989	1446.859506	-68.806520	571.102693	1382.193583	-88.315990	610.060064	1339.050415	-35.868537	588.586306	1245.603121	 -9.298220	549.026168	1230.090609	-81.016653	604.181595	1509.196718	-581.286367	519.125717	1456.828109	-560.491352	536.667458	1420.465388	-631.481847	498.433282	1345.036167	-673.110595	445.629699	1332.303675	-615.343467	645.430601	1187.378628	-19.316934	816.464680	1124.779895	-116.733749	778.346306	1070.013260	-89.666136	565.202510	1241.128278	-644.819163	668.749100	1172.549503	-543.985278	622.260176	1129.071694	-565.846191	934.641730	 58.228900	-433.224008	
